# xmcd
#
# Track frame offsets:
# 150
# 15548
# 30069
# 46174
# 60137
# 75231
# 89343
# 103016
# 117887
# 130225
# 145291
# 159940
# 173401
#
# Disc length: 2522 seconds
#
# Revision: 0
# Processed by: cddbd v1.5.2PL0 Copyright (c) Steve Scherf et al.
# Submitted via: Audion 3.0.2 (http://www.panic.com/audion/)
#
DISCID=8509d80d
DTITLE=GEWRGIOS GEWRGOPOULOS - I KARDIA KAI TA FILOKARDIA
DYEAR=1900
DGENRE=
TTITLE0=ASYMORFWTH
TTITLE1=TA ZHLIARIKA SOU MATIA
TTITLE2=TO MAGALAKI
TTITLE3=XARAMATA I WRA 3
TTITLE4=BYRALAX
TTITLE5=ASFF
TTITLE6=ASDAD
TTITLE7=ADS
TTITLE8=ASD
TTITLE9=ASFFAS
TTITLE10=SFASFD
TTITLE11=ASFSAFD
TTITLE12=AFASD
EXTD=
EXTT0=
EXTT1=
EXTT2=
EXTT3=
EXTT4=
EXTT5=
EXTT6=
EXTT7=
EXTT8=
EXTT9=
EXTT10=
EXTT11=
EXTT12=
PLAYORDER=
